<svg version="1.0" xmlns="http://www.w3.org/2000/svg"
 width="2729.000000pt" height="1160.000000pt" viewBox="0 0 2729.000000 1160.000000"
 preserveAspectRatio="xMidYMid meet">

<g transform="translate(0.000000,1160.000000) scale(0.100000,-0.100000)"
fill="#000000" stroke="none">
<path d="M3828 8682 c-1 -4 -29 -21 -61 -37 -62 -31 -152 -119 -182 -177 -9
-18 -26 -57 -37 -86 -38 -100 -22 -292 29 -353 7 -8 13 -20 13 -25 0 -12 54
-64 95 -91 81 -53 236 -56 296 -6 8 7 19 13 24 13 17 0 98 74 133 124 43 58
68 114 78 169 3 20 10 37 15 37 5 0 9 32 9 70 0 39 -4 70 -9 70 -5 0 -11 19
-15 42 -13 83 -83 175 -161 213 -30 15 -55 31 -55 36 0 11 -167 12 -172 1z"/>
<path d="M2968 8510 c-59 -49 -88 -119 -88 -212 0 -59 5 -89 20 -118 79 -155
221 -173 305 -40 73 115 47 287 -55 373 -26 22 -41 27 -88 27 -49 0 -63 -4
-94 -30z"/>
<path d="M2420 8397 c-37 -18 -71 -95 -71 -159 0 -74 35 -163 86 -217 39 -41
47 -45 102 -49 52 -4 62 -1 90 22 52 44 69 123 47 218 -34 145 -156 234 -254
185z"/>
<path d="M1973 8120 c-12 -5 -33 -26 -47 -47 -81 -118 36 -332 183 -337 61 -1
98 18 122 66 40 79 14 191 -63 268 -54 54 -133 75 -195 50z"/>
<path d="M2765 7844 c-185 -45 -289 -92 -421 -190 -241 -178 -383 -406 -459
-736 -11 -48 -15 -123 -15 -268 0 -189 3 -229 40 -470 29 -188 94 -475 128
-560 5 -14 17 -50 27 -80 17 -56 26 -81 50 -135 40 -90 55 -124 55 -129 0 -3
18 -35 40 -71 22 -36 40 -69 40 -74 0 -17 164 -228 214 -275 134 -126 286
-210 424 -231 23 -4 42 -11 42 -16 0 -5 59 -9 131 -9 103 0 134 3 145 15 9 8
26 15 40 15 42 0 151 60 198 110 94 99 141 225 139 375 0 98 -11 147 -49 235
-29 66 -35 75 -116 175 -193 239 -221 300 -234 495 -12 172 59 299 311 555
220 224 291 327 339 494 39 135 5 346 -78 486 -30 52 -112 136 -156 160 -153
84 -213 104 -420 135 -99 14 -345 11 -415 -6z"/>
<path d="M1637 7669 c-32 -35 -37 -47 -37 -89 0 -30 5 -52 15 -60 8 -7 15 -18
15 -25 0 -8 20 -33 44 -58 111 -110 252 -75 250 63 -1 107 -102 210 -206 210
-40 0 -49 -5 -81 -41z"/>
<path d="M4394 7231 c-102 -25 -215 -137 -255 -253 -18 -51 -21 -77 -17 -162
3 -55 10 -110 16 -121 6 -11 22 -45 36 -75 14 -30 38 -69 53 -86 40 -43 108
-94 128 -94 9 0 25 -5 36 -11 32 -17 120 -12 169 9 65 28 142 92 165 138 11
21 25 46 31 54 23 31 46 148 42 212 -4 64 -23 151 -39 178 -5 8 -12 22 -16 30
-11 25 -66 93 -97 120 -74 65 -154 84 -252 61z"/>
<path d="M5173 6791 c-56 -41 -88 -85 -113 -160 -49 -141 14 -281 126 -281
159 0 284 224 212 382 -41 90 -144 117 -225 59z"/>
<path d="M8780 6749 c-111 -14 -202 -40 -295 -84 -159 -74 -256 -176 -307
-322 -33 -97 -33 -269 0 -366 44 -126 143 -232 284 -303 109 -55 189 -82 433
-145 250 -65 330 -96 395 -155 56 -50 80 -103 80 -178 0 -84 -18 -132 -71
-190 -83 -91 -198 -136 -350 -136 -213 0 -333 73 -418 256 -93 199 -123 233
-209 242 -160 15 -244 -110 -197 -292 41 -155 184 -333 330 -408 279 -145 714
-143 1000 4 104 54 226 174 273 268 85 174 89 409 8 567 -95 188 -257 278
-715 397 -300 79 -377 112 -437 192 -26 33 -29 45 -29 110 0 64 3 77 30 116
33 46 114 101 180 121 66 20 270 15 335 -7 73 -25 151 -105 209 -214 64 -120
100 -158 161 -171 27 -6 55 -9 62 -7 7 3 25 7 40 10 14 3 41 18 58 32 83 71
94 192 27 326 -42 86 -137 183 -228 236 -159 91 -416 131 -649 101z"/>
<path d="M15604 6742 c-47 -23 -77 -60 -93 -117 -8 -28 -11 -323 -11 -980 0
-891 1 -942 19 -980 22 -48 44 -69 94 -90 46 -19 88 -19 135 0 76 32 110 83
118 178 l6 62 76 -75 c132 -128 245 -174 432 -174 135 -1 216 20 319 81 78 47
177 150 224 235 49 86 93 224 108 335 15 113 7 331 -16 422 -79 323 -283 506
-585 528 -194 13 -339 -38 -502 -179 l-57 -49 -3 343 -3 343 -25 43 c-13 24
-39 52 -57 63 -48 30 -128 34 -179 11z m790 -883 c162 -60 249 -233 249 -489
0 -242 -73 -396 -228 -478 -44 -24 -61 -27 -145 -27 -83 1 -102 4 -151 28
-105 51 -187 164 -215 296 -18 86 -18 248 1 335 27 125 93 238 177 297 82 59
215 75 312 38z"/>
<path d="M20290 6749 c-117 -15 -204 -40 -308 -90 -154 -74 -246 -176 -298
-329 -28 -80 -25 -273 4 -352 79 -217 255 -331 672 -437 308 -79 367 -101 442
-169 54 -48 78 -102 78 -176 0 -85 -18 -132 -73 -192 -90 -98 -220 -141 -399
-131 -89 5 -109 9 -174 41 -93 46 -142 102 -201 226 -67 143 -78 163 -117 194
-76 62 -206 40 -262 -43 -52 -79 -42 -192 28 -334 54 -107 179 -235 283 -289
277 -143 716 -141 1000 4 59 31 101 63 160 122 127 127 178 255 178 441 0 169
-48 298 -149 398 -120 120 -252 174 -734 301 -280 74 -374 154 -357 303 9 85
99 171 212 206 66 20 270 15 335 -7 73 -25 151 -105 209 -214 64 -120 100
-158 161 -171 27 -6 55 -9 62 -7 7 3 25 7 40 10 14 3 41 18 58 32 83 71 94
192 27 326 -42 86 -137 183 -228 236 -159 91 -416 131 -649 101z"/>
<path d="M10338 6691 c-48 -16 -90 -53 -112 -100 -19 -41 -21 -68 -24 -252
l-4 -206 -65 -6 c-107 -10 -159 -57 -157 -141 2 -82 54 -125 160 -134 l62 -5
5 -481 c4 -531 8 -569 68 -660 67 -101 170 -140 369 -141 152 0 233 14 305 54
69 37 90 70 90 138 0 51 -3 57 -39 90 -42 39 -28 38 -242 17 -76 -8 -114 10
-140 63 -16 35 -18 76 -22 479 l-4 441 98 5 c163 9 224 47 224 139 0 40 -5 55
-31 83 -38 44 -79 56 -196 56 l-92 0 -3 218 c-3 197 -5 220 -23 252 -44 75
-148 116 -227 91z"/>
<path d="M21848 6690 c-48 -14 -90 -52 -112 -99 -19 -41 -21 -68 -24 -252 l-4
-206 -58 -6 c-111 -10 -164 -54 -164 -137 0 -85 52 -129 160 -138 l62 -5 5
-481 c3 -413 6 -491 21 -548 32 -122 105 -199 226 -236 70 -21 309 -23 390 -3
117 29 183 79 196 147 9 49 -2 82 -42 122 l-35 35 -72 -7 c-40 -3 -99 -9 -133
-12 -76 -8 -114 10 -140 63 -16 35 -18 76 -22 479 l-4 441 100 5 c103 6 173
27 201 62 8 9 16 41 19 70 4 48 1 56 -28 89 -40 45 -79 57 -197 57 l-93 0 0
198 c0 113 -5 214 -11 237 -27 95 -142 155 -241 125z"/>
<path d="M5672 6484 c-94 -47 -152 -138 -152 -238 0 -60 3 -67 34 -100 32 -34
37 -36 98 -36 56 0 71 4 105 29 81 59 119 126 130 232 12 119 -92 174 -215
113z"/>
<path d="M4580 6223 c-195 -36 -358 -191 -436 -413 -22 -64 -26 -91 -25 -187
0 -72 6 -127 16 -155 8 -24 15 -52 15 -64 0 -11 7 -29 15 -40 8 -10 15 -27 15
-37 0 -11 6 -31 14 -45 7 -15 27 -56 44 -92 16 -36 48 -104 70 -151 41 -86 55
-122 93 -234 31 -91 23 -246 -16 -335 -59 -133 -139 -219 -293 -316 -204 -128
-238 -154 -280 -221 -15 -24 -30 -43 -34 -43 -5 0 -8 -5 -8 -11 0 -6 -13 -41
-29 -77 -63 -145 -63 -324 2 -442 104 -193 398 -311 678 -271 109 16 163 32
252 77 16 8 33 14 39 14 6 0 37 18 70 41 33 22 68 43 77 47 28 11 252 208 283
249 12 15 42 51 67 78 106 117 297 397 378 555 12 25 27 52 32 60 23 35 161
330 161 344 0 8 4 17 9 21 5 3 13 20 17 38 3 17 12 45 19 62 89 213 99 539 24
770 -62 190 -172 361 -315 492 -47 43 -89 79 -94 81 -5 2 -39 23 -77 48 -37
24 -73 44 -81 44 -8 0 -26 6 -40 14 -31 16 -84 35 -127 45 -17 4 -40 13 -52
19 -12 7 -37 12 -56 12 -19 0 -50 6 -68 14 -33 13 -299 20 -359 9z"/>
<path d="M11745 6160 c-377 -58 -606 -323 -631 -735 -11 -172 19 -334 88 -475
33 -69 58 -102 127 -170 128 -128 251 -185 455 -210 264 -34 520 34 678 180
175 160 169 350 -11 350 -55 0 -61 -4 -185 -117 -135 -124 -244 -169 -387
-161 -199 12 -334 161 -363 401 l-6 47 418 0 c238 0 445 5 482 10 97 16 150
46 178 100 21 41 23 55 19 155 -7 181 -58 297 -186 425 -141 140 -278 196
-501 205 -63 2 -142 0 -175 -5z m243 -275 c130 -39 220 -165 239 -332 l6 -53
-360 0 -361 0 14 71 c31 164 123 280 254 320 43 13 154 10 208 -6z"/>
<path d="M12986 6147 c-23 -13 -48 -38 -60 -62 -21 -40 -21 -49 -24 -980 -2
-671 1 -956 9 -995 20 -98 93 -142 205 -125 55 8 105 49 130 108 17 38 19 78
22 385 l3 342 51 -55 c116 -127 246 -191 410 -201 119 -8 215 12 325 66 242
119 383 391 383 740 0 397 -182 682 -496 776 -89 27 -258 26 -349 -3 -89 -28
-177 -84 -259 -166 l-63 -64 -6 63 c-6 83 -38 140 -96 171 -58 31 -132 31
-185 0z m832 -301 c149 -76 225 -236 225 -471 0 -242 -76 -404 -228 -483 -43
-23 -62 -27 -140 -27 -78 0 -98 4 -145 27 -97 48 -168 133 -211 254 -30 84
-38 283 -15 386 51 228 191 353 386 345 57 -3 87 -10 128 -31z"/>
<path d="M17292 6144 c-69 -34 -102 -88 -102 -165 0 -47 33 -137 264 -713
l263 -660 -24 -60 c-42 -104 -94 -195 -129 -225 -42 -38 -106 -48 -196 -33
-158 27 -248 -42 -224 -172 10 -51 54 -90 128 -112 90 -26 326 -26 416 0 83
25 171 82 220 145 65 82 119 207 367 856 130 341 255 667 277 724 62 158 88
262 78 307 -12 52 -39 85 -91 112 -36 19 -54 22 -98 18 -31 -3 -66 -13 -80
-24 -42 -31 -83 -131 -261 -637 -95 -269 -175 -494 -179 -498 -5 -4 -74 185
-155 420 -81 235 -161 467 -177 514 -45 128 -82 187 -132 210 -57 26 -104 24
-165 -7z"/>
<path d="M23255 6160 c-200 -31 -365 -123 -471 -262 -152 -202 -202 -514 -129
-804 47 -183 190 -362 355 -443 140 -68 218 -84 410 -84 139 0 178 3 244 21
121 33 231 91 308 161 175 161 169 351 -11 351 -55 0 -61 -4 -185 -117 -136
-124 -240 -168 -381 -161 -204 11 -340 158 -369 401 l-6 47 418 0 c238 0 445
5 482 10 97 16 150 46 178 100 21 41 23 55 19 155 -7 180 -58 296 -187 425
-98 98 -184 149 -307 181 -90 23 -277 33 -368 19z m243 -275 c130 -39 220
-165 239 -332 l6 -53 -357 0 -356 0 0 28 c0 40 26 136 51 185 39 79 126 152
209 178 43 13 154 10 208 -6z"/>
<path d="M24500 6148 c-30 -16 -50 -36 -64 -63 -21 -39 -21 -53 -24 -980 -2
-671 1 -956 9 -995 15 -72 57 -115 121 -125 102 -15 177 22 214 108 17 38 19
78 22 383 l3 341 67 -67 c125 -125 234 -176 395 -186 118 -8 215 12 324 66
255 126 394 412 380 785 -6 170 -28 262 -93 395 -39 79 -61 109 -128 175 -130
128 -255 179 -441 179 -183 1 -302 -50 -439 -187 l-63 -64 -6 63 c-6 83 -38
140 -96 171 -57 30 -123 30 -181 1z m823 -298 c99 -47 177 -154 214 -293 23
-86 22 -289 -1 -377 -36 -132 -112 -236 -211 -288 -43 -23 -62 -27 -140 -27
-78 0 -98 4 -145 27 -97 48 -172 138 -213 257 -28 82 -35 284 -13 383 38 170
126 283 259 330 71 25 184 20 250 -12z"/>
<path d="M5997 6089 c-48 -25 -116 -94 -133 -136 -17 -40 -17 -101 -1 -130 26
-46 67 -68 132 -68 54 0 66 4 120 40 73 50 104 104 105 183 0 60 -18 95 -61
118 -40 20 -117 17 -162 -7z"/>
<path d="M6205 5610 c-85 -12 -172 -101 -174 -177 -4 -148 193 -165 308 -26
26 31 31 46 31 90 0 89 -58 128 -165 113z"/>
</g>
</svg>