<svg version="1.0" xmlns="http://www.w3.org/2000/svg"
 width="363.000000pt" height="376.000000pt" viewBox="0 0 363.000000 376.000000"
 preserveAspectRatio="xMidYMid meet">

<g transform="translate(0.000000,376.000000) scale(0.100000,-0.100000)"
fill="#000000" stroke="none" fill="#3399ff">
<path d="M1655 3679 c-220 -21 -414 -77 -620 -180 -502 -249 -852 -712 -967
-1280 -20 -100 -23 -143 -23 -349 0 -206 3 -249 23 -349 105 -518 410 -954
853 -1219 671 -403 1539 -303 2105 241 178 171 290 323 390 532 392 813 129
1800 -614 2306 -248 169 -536 272 -842 299 -130 11 -176 11 -305 -1z m478
-179 c499 -106 910 -428 1138 -889 203 -414 226 -926 58 -1348 -216 -545 -671
-924 -1234 -1029 -149 -28 -442 -26 -583 4 -162 35 -257 68 -407 142 -803 396
-1139 1382 -754 2210 130 278 356 535 613 695 176 109 417 200 613 229 140 22
424 14 556 -14z"/>
<path d="M1665 3158 c-69 -38 -115 -113 -115 -188 0 -163 176 -220 272 -88 40
54 54 112 40 165 -14 53 -37 85 -74 107 -30 18 -94 21 -123 4z"/>
<path d="M1301 3093 c-74 -61 -42 -203 46 -203 27 0 37 6 53 33 45 73 6 187
-63 187 -8 0 -24 -8 -36 -17z"/>
<path d="M1040 3028 c-49 -51 2 -178 71 -178 33 0 48 18 56 62 9 61 -45 138
-97 138 -5 0 -19 -10 -30 -22z"/>
<path d="M837 2902 c-24 -26 -21 -73 6 -112 46 -70 127 -58 127 18 0 83 -87
145 -133 94z"/>
<path d="M1192 2790 c-111 -24 -232 -112 -301 -220 -54 -85 -82 -174 -89 -283
-10 -178 60 -493 148 -667 28 -56 105 -160 139 -188 70 -57 181 -102 253 -102
52 0 131 30 167 63 64 59 84 193 41 277 -12 24 -45 73 -73 109 -65 85 -80 122
-80 201 -1 82 14 110 131 234 149 159 181 228 161 343 -17 98 -57 149 -150
195 -71 35 -83 38 -190 42 -63 3 -133 1 -157 -4z"/>
<path d="M698 2716 c-28 -21 -22 -61 16 -100 37 -40 73 -47 99 -18 56 61 -49
168 -115 118z"/>
<path d="M1943 2230 c-37 -22 -73 -86 -73 -130 0 -44 37 -116 77 -149 88 -72
180 -37 214 81 18 64 -41 176 -108 204 -44 19 -72 17 -110 -6z"/>
<path d="M2309 2161 c-21 -22 -29 -39 -29 -66 0 -88 68 -136 117 -82 41 44 42
113 2 155 -27 30 -55 28 -90 -7z"/>
<path d="M2539 2104 c-32 -34 -35 -118 -5 -140 29 -21 45 -17 82 20 58 58 43
146 -25 146 -17 0 -37 -10 -52 -26z"/>
<path d="M2726 1993 c-34 -34 -43 -70 -25 -102 22 -39 62 -39 99 -2 36 35 41
88 12 114 -27 24 -55 21 -86 -10z"/>
<path d="M2271 1900 c-122 -19 -209 -94 -232 -200 -23 -108 9 -181 146 -329
48 -51 95 -112 106 -135 38 -84 20 -156 -72 -279 -32 -43 -64 -97 -70 -120
-26 -98 16 -201 101 -245 64 -33 181 -28 259 12 171 88 297 356 332 707 14
151 2 236 -48 339 -48 99 -120 170 -218 217 -66 31 -87 36 -163 39 -48 1 -111
-1 -141 -6z"/>
<path d="M2859 1821 c-47 -47 -36 -111 18 -111 58 0 101 104 54 130 -30 15
-40 13 -72 -19z"/>
</g>
</svg>
