<svg version="1.0" xmlns="http://www.w3.org/2000/svg"
 width="593.000000pt" height="840.000000pt" viewBox="0 0 593.000000 840.000000"
 preserveAspectRatio="xMidYMid meet">

<g transform="translate(0.000000,840.000000) scale(0.100000,-0.100000)"
fill="#000000" stroke="none">
<path d="M2805 6019 c-218 -21 -414 -77 -620 -180 -187 -93 -303 -177 -466
-339 -210 -209 -348 -433 -439 -708 -71 -216 -85 -314 -85 -582 0 -206 3 -249
23 -349 105 -518 410 -954 853 -1219 626 -375 1442 -315 2004 149 657 541 858
1452 490 2217 -277 577 -822 956 -1455 1012 -129 11 -176 11 -305 -1z m390
-164 c531 -80 977 -407 1221 -895 110 -219 162 -426 171 -681 11 -311 -42
-560 -175 -826 -232 -462 -660 -785 -1167 -879 -149 -28 -442 -26 -583 4 -157
34 -255 68 -397 137 -690 335 -1054 1111 -880 1878 154 680 707 1178 1410
1270 78 10 309 5 400 -8z"/>
<path d="M2815 5498 c-69 -38 -115 -113 -115 -188 0 -163 176 -220 272 -88 40
54 54 112 40 165 -14 53 -37 85 -74 107 -30 18 -94 21 -123 4z"/>
<path d="M2453 5435 c-34 -24 -55 -87 -41 -127 17 -51 46 -78 85 -78 27 0 37
6 53 33 44 72 6 187 -62 187 -8 0 -23 -7 -35 -15z"/>
<path d="M2189 5369 c-18 -18 -21 -30 -17 -71 9 -88 93 -142 132 -86 42 60
-15 178 -85 178 -5 0 -19 -10 -30 -21z"/>
<path d="M1987 5242 c-24 -26 -21 -73 6 -112 46 -70 127 -58 127 18 0 83 -87
145 -133 94z"/>
<path d="M2342 5130 c-81 -17 -154 -61 -232 -139 -84 -85 -111 -132 -140 -246
-24 -93 -25 -180 -5 -313 47 -314 134 -525 269 -654 62 -59 177 -107 258 -108
51 0 130 30 167 63 38 36 64 105 63 172 0 75 -15 110 -88 205 -72 95 -86 129
-87 210 -1 82 14 110 131 234 107 115 138 161 157 231 11 43 12 69 4 108 -30
162 -131 233 -343 242 -61 2 -130 0 -154 -5z"/>
<path d="M1848 5056 c-29 -22 -22 -65 17 -102 38 -38 73 -43 98 -16 21 23 21
45 2 82 -25 48 -80 65 -117 36z"/>
<path d="M3093 4570 c-37 -22 -73 -86 -73 -130 0 -75 76 -171 146 -185 96 -18
170 87 138 195 -17 59 -56 108 -101 126 -44 19 -72 17 -110 -6z"/>
<path d="M3459 4501 c-21 -22 -29 -39 -29 -66 0 -86 69 -135 117 -82 41 44 42
113 2 155 -27 30 -55 28 -90 -7z"/>
<path d="M3693 4448 c-27 -30 -36 -62 -29 -104 13 -64 82 -67 119 -5 50 85
-27 177 -90 109z"/>
<path d="M3877 4334 c-52 -51 -40 -134 19 -134 38 0 84 50 84 93 0 64 -57 87
-103 41z"/>
<path d="M3415 4239 c-118 -20 -204 -95 -226 -199 -23 -109 10 -183 146 -329
90 -96 124 -153 125 -207 0 -56 -31 -131 -80 -191 -73 -90 -84 -118 -85 -200
0 -63 3 -76 30 -115 17 -25 49 -53 75 -66 63 -33 181 -28 256 10 76 39 158
126 203 215 94 187 157 515 132 684 -29 193 -178 361 -352 398 -57 12 -151 13
-224 0z"/>
<path d="M4011 4164 c-50 -42 -40 -114 16 -114 58 0 101 104 54 130 -28 15
-36 13 -70 -16z"/>
</g>
</svg>